<?xml version="1.0" encoding="UTF-8" standalone="no"?>
<!DOCTYPE svg PUBLIC "-//W3C//DTD SVG 1.1//EN" "http://www.w3.org/Graphics/SVG/1.1/DTD/svg11.dtd">
<svg width="100%" height="100%" viewBox="0 0 512 512" version="1.1" xmlns="http://www.w3.org/2000/svg" xmlns:xlink="http://www.w3.org/1999/xlink" xml:space="preserve" xmlns:serif="http://www.serif.com/" style="fill-rule:evenodd;clip-rule:evenodd;stroke-linejoin:round;stroke-miterlimit:2;">
    <g>
        <g id="Artboard1">
            <rect x="0" y="0" width="512" height="512" style="fill:none;"/>
            <g transform="matrix(2,0,0,2,-256,-256)">
                <path d="M256,128C326.645,128 384,185.355 384,256C384,326.645 326.645,384 256,384C185.355,384 128,326.645 128,256C128,185.355 185.355,128 256,128ZM321.703,287.244L256,287.244C235.473,287.244 216.849,283.142 203.237,276.493C193.492,281.675 187.637,288.314 187.637,295.548C187.637,312.094 218.269,325.528 256,325.528C293.731,325.528 324.364,312.094 324.364,295.548C324.364,292.667 323.436,289.881 321.703,287.244ZM303.569,238.532L256,238.532C245.576,238.532 236.191,234.046 229.672,226.901C214.106,231.422 203.637,239.827 203.637,249.439C203.637,263.829 227.1,275.511 256,275.511C284.901,275.511 308.364,263.829 308.364,249.439C308.364,245.546 306.647,241.851 303.569,238.532ZM256,176.713C241.55,176.713 229.818,188.445 229.818,202.895C229.818,217.345 241.55,229.077 256,229.077C270.451,229.077 282.182,217.345 282.182,202.895C282.182,188.445 270.451,176.713 256,176.713Z" style="fill:white;"/>
            </g>
        </g>
    </g>
</svg>
