<?xml version="1.0" encoding="UTF-8" standalone="no"?>
<!DOCTYPE svg PUBLIC "-//W3C//DTD SVG 1.1//EN" "http://www.w3.org/Graphics/SVG/1.1/DTD/svg11.dtd">
<svg width="100%" height="100%" viewBox="0 0 512 512" version="1.1" xmlns="http://www.w3.org/2000/svg" xmlns:xlink="http://www.w3.org/1999/xlink" xml:space="preserve" xmlns:serif="http://www.serif.com/" style="fill-rule:evenodd;clip-rule:evenodd;stroke-linejoin:round;stroke-miterlimit:2;">
    <g>
        <g id="Artboard1">
            <rect x="0" y="0" width="512" height="512" style="fill:none;"/>
            <g transform="matrix(2,0,0,2,-256,-256)">
                <circle cx="256" cy="256" r="128"/>
            </g>
            <g transform="matrix(1.45455,0,0,1.45455,-116.364,-116.364)">
                <path d="M346.341,298.96C348.724,302.586 350,306.417 350,310.378C350,333.129 307.88,351.6 256,351.6C204.12,351.6 162,333.129 162,310.378C162,300.431 170.051,291.302 183.45,284.177C202.167,293.32 227.775,298.96 256,298.96L346.341,298.96Z" style="fill:white;"/>
                <path d="M321.407,231.981C325.639,236.544 328,241.625 328,246.978C328,266.764 295.738,282.827 256,282.827C216.262,282.827 184,266.764 184,246.978C184,233.761 198.395,222.205 219.798,215.989C228.762,225.813 241.666,231.981 256,231.981L321.407,231.981Z" style="fill:white;"/>
                <g transform="matrix(1.2,0,0,1.2,-52.4,-37.8194)">
                    <circle cx="257" cy="184" r="30" style="fill:white;"/>
                </g>
            </g>
        </g>
    </g>
</svg>
